<?xml version="1.0" encoding="UTF-8"?>
<svg xmlns="http://www.w3.org/2000/svg" xmlns:xlink="http://www.w3.org/1999/xlink" viewBox="0 0 400 400">
  <defs>
    <linearGradient id="linear-gradient" x1="86.8454" y1="313.15948" x2="314.41446" y2="85.59043" gradientUnits="userSpaceOnUse">
      <stop offset="0" stop-color="#ffdf6e"/>
      <stop offset=".04872" stop-color="#ffeb7d"/>
      <stop offset=".13707" stop-color="#ffff95"/>
      <stop offset=".15438" stop-color="#f2ec84"/>
      <stop offset=".19824" stop-color="#d6c15e"/>
      <stop offset=".2378" stop-color="#c2a242"/>
      <stop offset=".27132" stop-color="#b68f32"/>
      <stop offset=".29477" stop-color="#b2892c"/>
      <stop offset=".35392" stop-color="#c39e3f"/>
      <stop offset=".46557" stop-color="#edd16c"/>
      <stop offset=".63965" stop-color="#bc9737"/>
      <stop offset=".72439" stop-color="#a98023"/>
      <stop offset=".74088" stop-color="#9c731e"/>
      <stop offset=".7709" stop-color="#7c5314"/>
      <stop offset=".81079" stop-color="#481e02"/>
      <stop offset=".81707" stop-color="#401600"/>
      <stop offset=".82953" stop-color="#5a3108"/>
      <stop offset=".84809" stop-color="#7c5314"/>
      <stop offset=".86572" stop-color="#956b1c"/>
      <stop offset=".88186" stop-color="#a37a21"/>
      <stop offset=".89512" stop-color="#a98023"/>
      <stop offset=".91831" stop-color="#b78f2f"/>
      <stop offset=".96325" stop-color="#dcb84f"/>
      <stop offset="1" stop-color="#ffdf6e"/>
    </linearGradient>
    <linearGradient id="linear-gradient-2" x1="199.995" y1="38.76713" x2="199.995" y2="358.80366" gradientUnits="userSpaceOnUse">
      <stop offset="0" stop-color="#ffdf6e"/>
      <stop offset=".04872" stop-color="#ffeb7d"/>
      <stop offset=".13707" stop-color="#ffff95"/>
      <stop offset=".15438" stop-color="#f2ec84"/>
      <stop offset=".19824" stop-color="#d6c15e"/>
      <stop offset=".2378" stop-color="#c2a242"/>
      <stop offset=".27132" stop-color="#b68f32"/>
      <stop offset=".29477" stop-color="#b2892c"/>
      <stop offset=".35392" stop-color="#c39e3f"/>
      <stop offset=".46557" stop-color="#edd16c"/>
      <stop offset=".63965" stop-color="#bc9737"/>
      <stop offset=".72439" stop-color="#a98023"/>
      <stop offset=".89512" stop-color="#a98023"/>
      <stop offset=".91831" stop-color="#b78f2f"/>
      <stop offset=".96325" stop-color="#dcb84f"/>
      <stop offset="1" stop-color="#ffdf6e"/>
    </linearGradient>
    <filter id="drop-shadow-17" filterUnits="userSpaceOnUse">
      <feOffset dx="0" dy="7"/>
      <feGaussianBlur result="blur" stdDeviation="5"/>
      <feFlood flood-color="#000" flood-opacity=".75"/>
      <feComposite in2="blur" operator="in"/>
      <feComposite in="SourceGraphic"/>
    </filter>
  </defs>
  <g id="RibbonBottom">
    <g>
      <polygon points="400 170.22715 293.22714 170.22715 293.22714 228.85317 400 228.85317 372.90811 199.54034 400 170.22715" style="fill: #8e8a82;"/>
      <polygon points="0 170.22715 106.77286 170.22715 106.77286 228.85317 0 228.85317 27.09189 199.54034 0 170.22715" style="fill: #8e8a82;"/>
    </g>
    <g>
      <polygon points="361.30199 194.91183 295.12662 228.85317 295.12662 170.22715 361.30199 194.91183" style="fill: #0c0c0c;"/>
      <polygon points="38.69801 194.91183 104.87301 228.85317 104.87301 170.22715 38.69801 194.91183" style="fill: #0c0c0c;"/>
    </g>
  </g>
  <g id="BadgeGold">
    <g>
      <path d="m199.99493,32.91504L55.30499,116.46484v167.08008l144.68994,83.54004,144.70007-83.54004V116.46484L199.99493,32.91504Zm121.5,237.22998l-121.5,70.1499-121.48999-70.1499v-140.29004l121.48999-70.1499,121.5,70.1499v140.29004Z" style="fill: url(#linear-gradient);"/>
      <path d="m199.99493,35.9751L57.94501,117.98486v164.03003l142.04993,82.01001,142.05005-82.01001V117.98486L199.99493,35.9751Zm121.5,234.16992l-121.5,70.1499-121.48999-70.1499v-140.29004l121.48999-70.1499,121.5,70.1499v140.29004Z" style="fill: url(#linear-gradient-2);"/>
    </g>
  </g>
  <g id="BadgeColourLight">
    <path d="m75.4873,128.10484v143.80981l124.5498,71.90991V56.19469l-124.5498,71.91016Zm0,0v143.80981l124.5498,71.90991V56.19469l-124.5498,71.91016Zm124.54004-89.32007c-2.65015,0-5.31006.67993-7.7002,2.05981l-126.27979,72.92017c-4.76025,2.73999-7.7002,7.82007-7.7002,13.32007v145.82983c0,5.5,2.93994,10.58008,7.7002,13.32007l126.27979,72.91992c2.39014,1.38013,5.05005,2.06006,7.7002,2.06006h.00977v-12.08008c-.56982,0-1.13989-.1499-1.6499-.44995l-126.2998-72.90991c-1.02002-.59009-1.65015-1.68018-1.65015-2.86011V127.09459c0-1.17993.63013-2.27979,1.65015-2.85986l126.2998-72.91992c.51001-.30005,1.08008-.43994,1.6499-.43994v-12.09009h-.00977Zm-124.54004,233.12988l124.5498,71.90991V56.19469l-124.5498,71.91016v143.80981Zm0-143.80981v143.80981l124.5498,71.90991V56.19469l-124.5498,71.91016Zm0,0v143.80981l124.5498,71.90991V56.19469l-124.5498,71.91016Z" style="fill: #043ab2;"/>
  </g>
  <g id="BadgeColourDark">
    <path d="m199.98292,56.20483v287.62988l124.54004-71.90991v-143.80981l-124.54004-71.91016Zm0,0v287.62988l124.54004-71.90991v-143.80981l-124.54004-71.91016Zm141.51001,68.6001c-.47998-3.26001-2.01001-6.26001-4.32007-8.56006-.93994-.95996-2.01001-1.79004-3.19995-2.46997l-126.30005-72.92017c-2.37-1.37988-5.03003-2.05981-7.68994-2.05981v12.09009c.56995,0,1.13.13989,1.6499.43994l126.29004,72.91992c1.02002.58008,1.65002,1.67993,1.65002,2.85986v145.82007c0,1.17993-.63,2.27002-1.65002,2.86011l-126.29004,72.90991c-.5199.30005-1.07996.44995-1.6499.44995v12.08008c2.65991,0,5.31995-.67993,7.68994-2.06006l126.30005-72.91992c1.18994-.67993,2.26001-1.51001,3.19995-2.46997,2.31006-2.30005,3.84009-5.30005,4.32007-8.56006.10999-.75.15991-1.52002.15991-2.29004V127.09497c0-.77002-.04993-1.54004-.15991-2.29004Zm-16.96997,3.31006l-124.54004-71.91016v287.62988l124.54004-71.90991v-143.80981Zm-124.54004-71.91016v287.62988l124.54004-71.90991v-143.80981l-124.54004-71.91016Zm0,0v287.62988l124.54004-71.90991v-143.80981l-124.54004-71.91016Z" style="fill: #07318e;"/>
  </g>
  <g id="IITMlogo">
    <g>
      <path id="Path_340" data-name="Path 340" d="m200.01439,101.37287c-8.43029.0047-16.63619-2.71627-23.3935-7.75696-4.31647-3.21573-7.92336-7.28711-10.59529-11.95975-2.567-4.37081-4.1904-9.23068-4.76571-14.2668-1.07518-8.03521.46941-16.20295,4.40449-23.29067,2.53003-4.67629,6.01126-8.77096,10.21958-12.02039,15.96819-12.47932,38.81718-10.72492,52.69304,4.0459,7.53575,7.98865,11.30197,18.81482,10.35141,29.75568-.66175,8.42925-4.11929,16.39615-9.82409,22.63678-2.97555,3.33716-6.52411,6.11509-10.47796,8.20255-3.33679,1.78478-6.91316,3.0799-10.61903,3.84552-2.63071.53516-5.30835.80588-7.99294.80813Z" style="fill: #781e19;"/>
      <path id="Path_341" data-name="Path 341" d="m199.34205,101.25555h1.10343c.02109.01187.02636.02373.01977.0356s-.0145.01582-.02241.01582h-1.09684c-.02241-.01055-.03032-.02241-.02373-.0356s.01186-.01582.01977-.01582Z" style="fill: #8d5855;"/>
      <path id="Path_342" data-name="Path 342" d="m200.44284,101.30959v-.05142c.21357.01582.43768-.08569.64202.05142h-.64202Z" style="fill: #9a6c6a;"/>
      <path id="Path_343" data-name="Path 343" d="m199.34205,101.25555c.00154.01843.00154.03694,0,.05537h-.51809c.16347-.14106.34804-.03428.51809-.05537Z" style="fill: #a27775;"/>
      <path id="Path_344" data-name="Path 344" d="m201.73743,101.25555c-.00101.01845-.00101.03692,0,.05537h-.45087c.13446-.12392.2953-.0501.45087-.05537Z" style="fill: #ceb5b3;"/>
      <path id="Path_345" data-name="Path 345" d="m200.01439,92.85788c-6.57834.0024-12.98135-2.12099-18.25471-6.05371-3.36854-2.51021-6.1833-5.68804-8.26847-9.33499-2.00692-3.41077-3.27694-7.2042-3.72819-11.1358-.83907-6.27134.36616-12.64609,3.43684-18.17824,1.97495-3.64927,4.69179-6.84482,7.9758-9.38113,12.46528-9.74206,30.30276-8.36994,41.13143,3.16396,5.88012,6.23462,8.81928,14.68278,8.07863,23.2208-.51705,6.57831-3.21599,12.79558-7.66864,17.66542-2.32111,2.60444-5.08918,4.77292-8.17355,6.40306-2.60469,1.39217-5.39599,2.40267-8.28824,3.00049-2.05408.41764-4.1448.62873-6.24091.63014Z" style="fill: #fff;"/>
      <path id="Path_346" data-name="Path 346" d="m203.60944,96.31187c-.0356-.56161-.02768-.56161.497-.67103-.15293-.2808-.33221-.49437-.69607-.3955-.23301.06294-.47709-.05351-.57479-.27421-.25277-.37489-.56439-.70654-.92282-.98215-.31651-.27878-.70894-.45686-1.12716-.51151-.55194-.08963-1.07203.28515-1.16166.83709-.02208.136-.01617.27507.01736.40871.05577.22962.12848.45479.21752.67366-1.98108.00264-3.95774-.18722-5.9021-.56688.12392.26366.10283.52733.44823.57083.51019.06855.50755.0936.40736.60774,0,.03164-.01582.06196-.02373.0936-.06328.2808.00659.6908-.20565.80681s-.55105-.07514-.83713-.10151c-.19247-.01846-.23334-.10019-.19775-.27157.05932-.28476.10019-.57083.16347-.85427.10491-.48533-.07379-.98822-.46141-1.29854-.25418-.25851-.66943-.26323-.92941-.01055-.0679.08248-.18046.11312-.2808.07646-.27421-.0936-.55501-.16742-.83054-.25312-.08569-.02636-.13183-.0646-.15424-.18193-.13855-.66421-.42067-1.29008-.82658-1.83377-.26929-.3538-.67003-.58388-1.11134-.63807-.46732-.07689-.91899.2054-1.05465.65916-.07407.29627-.10121.60233-.08042.90701-.56119-.19781-1.11129-.42576-1.64789-.68288-.12128-.06064-.13183-.13183-.13974-.24917-.03133-.56951-.16531-1.12867-.39549-1.65053-.12506-.31063-.32205-.58714-.57479-.80681-.40754-.40072-1.06277-.39518-1.46349.01236-.12574.1279-.21609.28627-.26219.4596-.06608.2141-.10592.43545-.11865.65916l-.92282-.52733c-.03691.3454,0,.62093.35595.75012.08965.03296.1727.08041.08701.21357-.49042.76199-.85822,1.60175-1.4251,2.31892-.12335.11321-.13331.30434-.02241.42977.1081.13183.20829.27157.31903.41791l1.7349-2.95302c.30619.22321.63871.40784.99005.54974.09492.05405.20565.08569.18852.22543-.00412.29509-.14546.57143-.38231.74749-.17665.11469-.37044.22016-.4245-.13183-.00922-.16052-.14517-.28417-.30585-.27816-.16748.01893-.30004.1504-.32035.31771-.03109.14755-.03378.29967-.00791.44822.12779.75145.32236,1.48999.58138,2.20686.05537.17269.13183.14502.2518.09755.15556-.05932.19643-.12524.10151-.27816-.19201-.33516-.34379-.69182-.45218-1.06256-.08569-.26366-.11074-.44559.24916-.46404.14965-.02431.28794-.09485.39549-.2017.10414-.08569.15556-.07646.20038.05932.12855.46642.51859.81416.99665.88855-.15029.31639-.2808.62093-.43768.91096-.08901.12483-.07799.29504.02637.40736.10151.12129.14238.28871.29135.3955l1.23921-2.55094c.04748-.16482.12577-.31915.2307-.45482.17006-.14633.3098.13183.47591.11997.28607-.01055.21093.12392.14765.2874-.2808.70794-.52733,1.43301-.84504,2.11985-.21391.3647-.0967.83352.26366,1.05466.02229-.03483.04254-.07093.06064-.1081.32694-.83844.65432-1.67779.98214-2.51799.06064-.15952.08437-.37176.19907-.46668.1437-.11469.30058.08701.45877.13183.80681.21884,1.60439.47459,2.4112.68948.2518.06724.1582.19511.12392.32958s-.06855.29135-.29003.20434-.44954-.14106-.6763-.20434c-.33746-.13986-.72565-.06749-.99005.18456-.21433.26988-.24103.64366-.06723.94127.05669.13183.04219.18061-.08965.2373-.15371.09339-.35398.04509-.44823-.1081-.13183-.18852-.01714-.3098.13183-.3955s.13183-.13975.05009-.24652-.14238-.21489-.21093-.32431c-.04351-.06724-.07778-.11074-.17665-.06724-.32266.13043-.4785.49773-.34807.82039.01442.03569.03208.06997.05276.10243.09558.17147.24144.30951.41791.3955.14765.06855.15951.13183.07514.26366-.09176.15172-.08291.34382.02241.48646.2988.54731.92587.82823,1.5332.68685.21357-.04482.41791-.31771.58401-.19643s.1872.3955.24653.61169c.05142.18193.15029.13183.26366.0936s.15424-.10942.08042-.23598c-.1226-.21357-.22016-.44163-.33881-.65916-.10283-.1872-.21357-.33353.1147-.43241.21314-.08398.3194-.32349.23861-.53787-.03554-.23389-.2354-.40751-.47196-.40999-.21884-.01055-.41791.0435-.45086.30585-.01582.11864-.07251.11337-.15161.08965-.16794-.03464-.33249-.08405-.49173-.14765-.25483-.08264-.39442-.35621-.31178-.61104.08264-.25483.35621-.39441.61104-.31178h0c.21884.05142.43241.13183.64861.18983.25575.07383.56556.26366.7554.18852.22279-.0936.18984-.48646.29267-.73825.0356-.08569,0-.24125.16215-.23071.12146.00054.22839.0802.26366.19643.0699.242.23302.44637.4535.56819.33485.15424.32035.38099.26366.67103-.04087.19248-.08701.30322-.32167.2452-.19643-.04878-.39549,0-.3599.26366.05054.42253.28626.80074.64334,1.03224.20434.13183.4034.03823.41131-.17138.01846-.46932.27289-.43109.58797-.34276.07246.01983.14596.03569.22016.04746q.40868.06855.33485.46668c-.13183.68948-.1226.71057.4535,1.07443.17006-.93864.33485-1.86673.50491-2.79351.00388-.18132.04896-.3594.13183-.52073.09887-.11997.29926.02901.45614.02901.03164,0,.0646-.00791.09756,0l1.96033.13183c.10547.00659.1872.01714.1727.16347-.03823.37176-.0646.74485-.09887,1.15616-.15424-.13183-.27816-.24257-.39549-.35462-.25026-.24251-.57583-.39228-.92282-.4245-.47793-.08192-.93179.23911-1.01371.71704-.0148.0863-.0166.17431-.00535.26114.18605.75351.94771,1.21353,1.70122,1.02749.04255-.01051.08458-.023.12597-.03744.13274-.09253.28919-.14514.45086-.1516-.13183.51282-.0646.94392.53787,1.11134.07119-.92941.14106-1.84564.21225-2.76846-.01547-.18196.00285-.36521.05405-.54051.10942-.20961.35199-.01846.52733-.08041.23466-.08306.26366.03032.26366.23466-.02373.76331-.03296,1.5266-.04746,2.28991-.01186.61038,0,.62093.67498.91623,0-1.04015.01055-2.04603-.00659-3.0519,0-.28871.04482-.3955.36781-.3955.59984,0,1.20098-.07778,1.80214-.1081s.45877-.09492.51151.46536c.0145.15952-.01714.23071-.19775.23466-.33353.00659-.66707.06987-.99665.05537-.47766-.05246-.90741.29223-.95987.76991-.02363.21512.03377.43132.16098.60641.24628.41852.55781.79502.92282,1.1153.08833.08041.16874.26366.3309.07514s-.0646-.20961-.13183-.27157c-.34952-.27592-.58056-.67483-.64598-1.1153-.05414-.24081.09719-.47991.338-.53405.04522-.01017.09174-.01324.13791-.0091.30058-.02241.60247-.03428.90041-.0646.15556-.01582.20698.03428.21225.18852.01318.33353.07514.66706.05669.99797-.02768.50227.2307.73298.70135.84636-.00791-.1437-.01186-.27816-.02241-.41264-.06199-.80678-.12395-1.61095-.17404-2.41512Zm-19.90655-5.25744c-.07396-.03604-.10471-.1252-.06868-.19917.00241-.00495.00509-.00976.00803-.0144.24784-.57346.8925-1.10871,1.5978-.3955.45953.48872.72202,1.13015.73694,1.80081-.78519-.34489-1.54588-.74306-2.27673-1.19175h.00264Zm2.59971,2.09875c-.11177.19471-.20999.3969-.29398.60511-.06965.19954-.27057.32209-.47986.29267-.40101.01161-.7355-.30406-.7471-.70507-.00249-.08603.01032-.1718.03785-.25334.08684-.19685.13517-.40852.14238-.62356-.00659-.18325.06855-.15952.18852-.10019.35463.17666.70793.35594,1.06915.51678.1516.06854.14896.14237.08304.26761Zm2.1093.13183c-.14765-.07778-.18588-.14765-.13183-.29267.22939-.65916.70266-1.1377,1.58198-.53787.53325.39915.89624.98482,1.01642,1.63999-.83809-.2171-1.66187-.48612-2.46656-.80549v-.00396Zm1.22207,3.57263c.22411.08965.44163.1938.67893.30057-.20269.25739-.51349.40597-.84109.40209-.18492.04-.37365-.04922-.46009-.21752-.05202-.12339-.01149-.26635.09756-.34408.12707-.1495.33372-.20419.5181-.13709l.00659-.00396Zm3.34984-1.31831c-.1437.06592-.41659-.30717-.39549-.50887.0043-.2272.18936-.40932.41659-.40999.1727-.01319.19907.13183.21225.27684-.10678.20698.01319.52865-.23993.6473l.00659-.00528Zm5.0096,2.01175c-.30025.16182-.62019.28413-.95182.36386-.41263.05273-.72903-.09755-.76726-.3955s.24521-.55501.62356-.61566c.06328-.01055.13183-.01582.19116-.02241.40472-.01846.65916.26366.94391.47855.09624.08702.04879.15953-.04218.19381l.00263-.00265Zm3.85212-2.21477c-.51091.0542-1.02508.07139-1.53847.05142-.1437-.0145-.20565-.05142-.22675-.19775-.12591-.48333.16384-.97723.64718-1.10314.17823-.04643.36639-.03734.53931.02607.63617.19408,1.18573.60206,1.55561,1.15484-.37044.03164-.67497.06065-.98082.07384l.00395-.00528Z" style="fill: #fff;"/>
      <path id="Path_347" data-name="Path 347" d="m217.2039,91.77423q-.24917-.43373.16611-.71584c.00951-.00948.01516-.02218.01582-.0356-.26062-.24354-.6664-.24007-.92282.00791-.41407.28781-.85255.53881-1.31041.75012-1.26031.55501-2.47711,1.20362-3.79411,1.63867-1.5379.56836-3.11993,1.00928-4.73011,1.31831-.63807.09887-1.26822.24652-1.90892.3744.16392.31686.54346.45502.87273.31771.44295-.12129.90436-.17666,1.35523-.27553.13183-.02901.19115-.02636.21489.13183.05142.30453.12261.60511.18983.92282-.73035-.3599-.86481-.38627-1.25504-.26366-.3427.10603-.54796.45594-.47328.80681.17931.63707.84114,1.00816,1.47821.82884.15345-.0432.29675-.11657.42149-.21583.01319-.01055.03955,0,.06855-.00923.0646.45087.08569.94259.71189.98742.16347-.01714.08833-.12261.07514-.20565-.06943-.35683-.13798-.71453-.20565-1.07311-.09191-.3395.06574-.69708.37836-.85822.20059-.14999.48478-.10898.63477.09161.05823.07787.08989.17238.09031.26961.02142.25978-.04596.51913-.19115.73562-.09755.1516-.05669.22675.08569.2953.09676.04678.18899.10239.27553.16611.11864.09096.16742.03032.2017-.07646.1198-.30174.14509-.63276.07251-.94919-.26366-.93468-1.08234-1.30381-1.77182-.77385-.02109-.09755-.03955-.1872-.05932-.27816-.15424-.70002-.14897-.68025.55501-.84504.42531-.0198.84014-.13853,1.21153-.34672.11733-.09228.16084.03164.1938.12524.10547.31508.2017.63411.32563.94259.08965.21884.07778.33221-.18325.40867-.28871.08569-.32167.27553-.13183.51809.19734.22955.45555.39865.74485.48778.18061.0646.38627.14238.54578-.02636.13975-.14765.05405-.32694-.01055-.48382s-.0435-.22675.13183-.27421c.25882-.07188.51288-.15994.76067-.26366.13183-.05537.1938-.02636.22543.11074.02715.09263.05927.18373.09623.27289.17269.5036.30057.5906.85427.56951-.03296-.10415-.06327-.20565-.09755-.30717-.3098-.90304-.62356-1.80346-.92282-2.70914-.01846-.05669-.15556-.15029.0435-.23598.91404-.3955,1.81927-.80989,2.71573-1.24317.21357-.10151.30322-.0646.37044.13975.02085.07239.0524.14126.0936.20434.15556.20961.06855.29794-.1437.3889-.53392.22675-1.05466.47855-1.62548.73694.25312.07646.45746.14238.65916.2017.24077.06593.45559.20394.61566.3955.18258.1639.19773.4448.03381.62738-.09132.10173-.22437.15575-.36076.14646-.24796.01015-.49403-.04727-.71189-.16611-.29557-.15422-.56085-.36055-.78308-.60906-.05142-.05405-.09755-.11864-.18193-.03955-.06064.05669-.09492.10679-.02636.18456.49759.65915,1.24193,1.08747,2.06185,1.18649.42193.0464.80159-.25803.84799-.67996.03005-.27333-.0882-.5419-.31012-.70428-.19586-.16054-.41918-.28427-.65916-.36517.28871-.13183.54183-.2518.79099-.38099.1516-.08041.22279-.04746.28871.10547.16874.38363.35727.75671.52733,1.13902.04121.12525.15953.20877.29135.20565.1582,0,.31639.02241.48646.0356-.00584-.11246-.04281-.22108-.10679-.31376-.35156-.75672-.70794-1.51343-1.06915-2.27014-.09714-.14086-.16814-.29805-.20961-.46404-.01055-.22939.29794-.15952.3889-.2953.15952-.24257.21225-.0936.29267.04878.3955.67893.78308,1.35655,1.1733,2.03548.27684.47986.37572.52733.96237.3955l-1.44096-2.50215Zm-9.85835,4.96609c-.14851.22288-.35814.39819-.60379.50492-.18761.11185-.43038.05043-.54223-.13718-.00932-.01565-.01756-.03192-.02464-.0487,0-.10942,0-.22016.00659-.32958.20796-.37422.67991-.50898,1.05411-.30102.01588.00883.03145.01821.04668.02813.11469.08041.15952.15424.06328.28343Zm4.56928-1.42905c-.03164.00791-.06064.02241-.08965.03296-.30453.09623-.64992.32563-.89909.24785s-.24125-.52733-.34672-.8134c-.19248-.52733-.18456-.52733.35331-.71584q.5906-.20302.79099.3955l.25575.75012c.01231.04343-.01291.08862-.05634.10093-.00272.00076-.00547.0014-.00825.00188Z" style="fill: #fff;"/>
      <path id="Path_348" data-name="Path 348" d="m233.56287,62.43381c.80417.20434,1.54506.37177,2.2675.60511.30585.09887.72508.10679.88327.31508s.03823.62093.08438.93732-.08041.41264-.3955.42977c-1.28667.07119-2.57203.16347-3.85739.26366-.25312.01846-.35594-.02241-.35462-.31244,0-.69607-.01055-.6908.68288-.72243.94259-.0435,1.88519-.09492,2.87261-.14633-1.04411-.30322-2.04866-.59324-3.05058-.88854-.15029-.04482-.38363-.029-.42581-.1727-.04574-.2319-.05287-.46976-.02109-.70398.00923-.13974.16611-.11601.26366-.14238.97819-.28344,1.94583-.60115,2.94512-.80681.07864-.02468.1557-.05418.23071-.08833l-2.5628-.08042c-.26366-.00791-.51546-.01846-.77253-.0145-.14765,0-.2017-.05142-.21489-.20434-.07119-.78044-.07646-.78176.6908-.74353,1.2234.05932,2.4468.12392,3.66887.17534.18061.00791.24389.06196.23993.24125-.00791.37572.13183.81999-.03428,1.10607s-.64597.26366-.98742.37177c-.68684.22544-1.38159.40737-2.1528.58138Z" style="fill: #fff;"/>
      <path id="Path_349" data-name="Path 349" d="m173.14054,82.86505l-1.6703,1.39346c-.03154.02944-.06501.05675-.10019.08173-.1872.11864-.36386.42977-.52733.36122-.21884-.09228-.35463-.38231-.52733-.58138-.09756-.10942,0-.15029.06196-.19775,1.12452-.89514,2.21213-1.83773,3.37489-2.68541.10942-.0791.16347-.05669.23466.0356.15161.19643.30189.3955.46668.5761.08487.08583.10062.21834.03823.32167-.34144.82131-.65916,1.65053-1.02697,2.46525-.11733.26366-.30849.49437-.45746.84899.23334-.16742.40472-.27816.56292-.40604.64202-.52733,1.28272-1.04674,1.91551-1.58197.13183-.11469.20434-.11733.3243.02636.46932.56292.47591.55764-.10019,1.02301-.70925.57566-1.41939,1.15045-2.1304,1.72435-.10679.08569-.2307.1516-.34408.22939-.20961.14502-.47328.50755-.59588.42581-.28641-.24185-.53327-.52698-.73167-.84504-.07119-.09096.02109-.18456.05537-.26366.34081-.93728.72845-1.85686,1.16144-2.75527.02374-.06065.06329-.1147.01583-.19643Z" style="fill: #fff;"/>
      <path id="Path_350" data-name="Path 350" d="m166.95369,56.28124c-.96105-.10151-1.9076-.23466-2.8502-.39549-.17006-.02768-.23202-.05405-.19775-.25444.11997-.71584.10942-.7198.82526-.60774,1.20889.18852,2.41647.38231,3.62669.56292.19511.029.26366.06591.23202.29267-.11601.8134-.10547.81604-.87932,1.0942-.47327.17138-.94655.34276-1.42246.51282s-.93205.31376-1.41719.47064c.41527.05669.83054.10942,1.24449.16874.60511.08965,1.21021.18588,1.81532.27157.18193.02637.23861.08305.20961.28871-.10547.70398-.09492.7053-.80022.59588-1.21944-.19116-2.43757-.3889-3.65832-.57083-.20566-.03164-.22148-.09756-.22411-.30717-.06336-.63562.39395-1.20492,1.02829-1.28008.78308-.20961,1.53452-.53787,2.32419-.73958.05141-.00264.1081-.00264.1437-.10283Z" style="fill: #fff;"/>
      <path id="Path_351" data-name="Path 351" d="m164.94194,68.15397c.68816-.10019,1.37764-.2017,2.06712-.30057.37176-.05273.74485-.09755,1.11661-.1516.12524-.01846.18061,0,.21093.14765.16347.7699.15161.79099-.62488.87668-1.21549.14502-2.42834.29662-3.63987.46668-.22807.03164-.23598-.04746-.29135-.23071-.23555-.58007.02698-1.2428.59588-1.5042.73958-.46273,1.45015-.98215,2.16995-1.50947-.22016.04087-.43768.09096-.65916.12261-.74353.10547-1.48838.19907-2.23191.30717-.15029.02241-.22939,0-.22939-.16479.00053-.01054.00053-.0211,0-.03164-.10415-.73298-.10283-.72903.63016-.81999,1.21417-.1516,2.42833-.30057,3.63987-.47328.23202-.03296.25048.05405.30057.23334.20756.51256-.03575,1.09672-.54578,1.31041-.49766.31809-.97819.6622-1.4396,1.03092-.33888.25628-.69624.48717-1.06915.69079Z" style="fill: #fff;"/>
      <path id="Path_352" data-name="Path 352" d="m219.44899,35.36749c.16347-.0936.19248-.22807.25444-.33353.4245-.72375.90304-1.4106,1.36182-2.1093.08041-.1226.13183-.15556.27157-.06855q.65916.39549.23466,1.03224c-.66706,1.0006-1.33809,1.99856-1.99856,3.00312-.10942.16742-.18325.20302-.36517.08042-.71057-.47591-.71321-.46932-.62093-1.38159s.13183-1.86278.31376-2.79219c-.13975.02241-.15556.13183-.20434.20961-.49964.7633-.99929,1.52661-1.48969,2.29651-.10415.16084-.17402.21752-.36517.08833-.58138-.39549-.58797-.38758-.19775-.9716.67366-1.00851,1.35127-2.0157,2.01702-3.03212.11469-.17534.20961-.21357.37044-.07251.06995.06724.15116.12168.23993.16084.51414.2017.57083.5827.51019,1.08102-.11337.92544-.12392,1.86277-.33221,2.80931Z" style="fill: #fff;"/>
      <path id="Path_353" data-name="Path 353" d="m235.21735,72.40686c-1.30864-.43944-2.61641-.88284-3.9233-1.33018-.09623-.03296-.17534-.06196-.23203.06987-.42335.7335-.66054,1.55955-.6908,2.40592v.27816c.00166.05411.01052.10775.02636.15952.2777.88574,1.02247,1.54527,1.93529,1.71381.86454.26462,1.79678-.10772,2.24113-.89514.37986-.67303.64034-1.40673.7699-2.16862.04089-.14238-.00131-.19511-.12655-.23334Zm-.89118.97687c-.0628.62731-.51731,1.1454-1.13112,1.28931-.73135.08155-1.44297-.27143-1.82059-.90304-.08378-.17862-.12226-.37512-.11206-.57215,0-.0646,0-.13183.01055-.19248.07119-.73298.15952-.79099.84504-.55897.68552.23202,1.33941.44955,2.00911.67761.11601.04483.23861.05143.2017.25708l-.00265.00264Z" style="fill: #fff;"/>
      <path id="Path_354" data-name="Path 354" d="m172.97971,79.91598c-.30085-.74947-.74915-1.43088-1.31831-2.00383-.37047-.36927-.8744-.57321-1.39742-.56556-.75893.01872-1.47564.35318-1.97747.92282-.39602.42389-.55907,1.015-.43636,1.58197.22209.85286.62693,1.64726,1.18649,2.32814.09096.13183.1727.07646.26366.01977,1.19-.68288,2.38088-1.36446,3.57263-2.04471.11601-.05536.17402-.09754.10679-.2386Zm-1.2524-.29003c-.7699.44163-1.54375.87536-2.30837,1.32622-.16742.09887-.22675.0145-.30058-.09755-.37651-.41787-.47488-1.01687-.2518-1.5332.30019-.54027.85333-.892,1.46992-.93468.66717.00592,1.26005.42678,1.48574,1.05466.04351.12392-.02505.1437-.09492.18456Z" style="fill: #fff;"/>
      <path id="Path_355" data-name="Path 355" d="m230.74299,42.96757c-.98453-.4403-2.13988-.20912-2.8792.5761-.6564.56632-.87816,1.48837-.55105,2.29123.29217.86033,1.08776,1.44887,1.99593,1.47651.96083-.02059,1.85171-.50684,2.38878-1.30381.59064-1.05614.21329-2.39112-.84286-2.98176-.03663-.02049-.07385-.03992-.1116-.05827Zm-.1081,2.59312c-.38417.39621-.89107.65081-1.43829.72244-.53538.07224-1.02796-.30323-1.1002-.83862-.02891-.21429.014-.43212.12201-.61944.36077-.66761,1.0618-1.0803,1.8206-1.07179.44088-.01057.83865.2633.9861.67893.11529.42026-.03977.86814-.39022,1.12716v.00132Z" style="fill: #fff;"/>
      <path id="Path_356" data-name="Path 356" d="m223.5529,35.28312c-.83179.06472-1.58178.52531-2.0157,1.2379-.47313.62546-.54197,1.46807-.17666,2.16204.36786.76637,1.1419,1.25456,1.99198,1.25635.98502.00166,1.87784-.57924,2.27541-1.48046.54887-1.07517.12222-2.39171-.95294-2.94059-.34644-.17685-.73379-.25806-1.12208-.23524Zm-.22675,3.69128c-.44382.07072-.88542-.13882-1.11134-.52733-.17145-.46092-.07405-.97884.25312-1.346.22845-.2536.48648-.47888.76858-.67102.27137-.18055.60174-.24992.92282-.19379.44713.09712.76105.49979.74617.9571-.11662.8591-.73954,1.56321-1.57802,1.78368l-.00132-.00264Z" style="fill: #fff;"/>
      <path id="Path_357" data-name="Path 357" d="m189.38745,27.68831c-1.22207-.03058-2.23755.93531-2.26813,2.15738-.0005.02-.00073.04001-.00069.06002-.08744,1.30698.88731,2.44351,2.19236,2.55621,1.21363.08538,2.26669-.82925,2.35207-2.04288.0027-.03835.00439-.07676.00508-.1152.10631-1.33618-.8907-2.50555-2.22688-2.61186-.01792-.00143-.03585-.00265-.05379-.00368Zm.53392,3.85211c-.47468.16506-1.0009-.01233-1.27877-.43109-.33803-.43849-.50233-.98632-.46141-1.53847-.01045-.42284.25242-.80437.65125-.94523.40496-.1489.85978-.03611,1.14825.28476.3704.38325.58432.89102.59984,1.42378-.00264.66839-.24389,1.06256-.65784,1.20626h-.00132Z" style="fill: #fff;"/>
      <path id="Path_358" data-name="Path 358" d="m216.97715,30.24584c-.02636.06064-.05669.13183-.08701.19775-.55632,1.21812-1.11793,2.43361-1.66371,3.657-.08965.2017-.17006.26366-.36913.1437-.14134-.09828-.29953-.16977-.46668-.21093-.3744-.05932-.26366-.27157-.13183-.43636.24512-.40991.45971-.83732.64202-1.27877.06592-.12392.01187-.16347-.0936-.20961-.44295-.1872-.88722-.37308-1.31831-.5761-.16215-.07646-.18061.02637-.22411.12392-.20565.44823-.41791.89382-.61169,1.346-.07119.16611-.13975.20961-.30717.11733-.22279-.12524-.56688-.16874-.65916-.34935s.14765-.45614.2518-.68421c.48382-1.07442.98347-2.14094,1.45938-3.22064.10151-.2307.19907-.26366.3955-.1437.14209.09666.30005.16761.46668.20961.33617.05669.24257.23598.12392.39549-.22447.37205-.42101.76027-.58797,1.16144-.07119.13183-.02636.18193.09623.23334.43373.18325.86613.36781,1.29195.56688.15952.07383.19643,0,.24917-.12392.18325-.41131.37836-.81604.55897-1.22867.06196-.1437.11864-.20302.27684-.11469.18588.10415.3955.17666.58138.27289.05139.03032.15026.029.12653.15161Z" style="fill: #fff;"/>
      <path id="Path_359" data-name="Path 359" d="m232.10877,47.87434c.64758-.02205,1.27154.24453,1.70326.72771.50318.56576.81383,1.27662.88722,2.03021.02241.18456-.01846.28344-.22939.28344s-.41923.10547-.56292.03164c-.09755-.04878-.07119-.32958-.11074-.50491-.03062-.1342-.0698-.2663-.11733-.39549-.1446-.62941-.688-1.08735-1.33282-1.12321-.71375.01044-1.34874.45572-1.60175,1.12321-.22279.51546.12261.85954.26366,1.26822.01696.05191.07278.08024.12469.06328.00241-.00079.0048-.00167.00714-.00264.25048-.0936.50096-.18984.7488-.29003.08041-.03296.058-.09887.03164-.16215-.04878-.11865-.08569-.24257-.14238-.35858s-.04482-.17534.09096-.23861c.58401-.26366.58006-.27684.81604.32035.11337.28871.21752.5827.34276.86613.058.13183.03955.1872-.0936.23861-.63807.24916-1.27877.49569-1.90892.76462-.12948.05877-.28243.01045-.35462-.11206-.70007-.7471-1.03107-1.76716-.90304-2.78296.18061-.98874.94259-1.39873,1.80873-1.66371.17059-.06144.35138-.08964.53259-.08306Z" style="fill: #fff;"/>
      <path id="Path_360" data-name="Path 360" d="m233.09882,77.80273c-1.05466-.51941-2.10271-1.05466-3.15077-1.59648-.70002-.35859-.68816-.35594-1.05466.33221-.10679.20565-.04218.26366.13183.35462.38495.18852.75803.3955,1.14429.58665.16479.08041.22279.1437.11864.32826-.12736.36426-.52591.55629-.89017.42893-.01098-.00384-.02187-.00796-.03265-.01234-.33485-.06987-.66971-.1437-1.00587-.21094-.10415-.01977-.20829-.03691-.27157.09755-.13183.26366-.26366.52733-.42581.83318.82658.03823,1.55956.55897,2.36242.15029.01125.15122.03062.30173.058.45087.20525.67348.9176,1.05305,1.59108.8478.24922-.07596.46918-.22644.63028-.43121.40266-.52968.72187-1.11786.94655-1.74413.09097-.20566.06857-.30717-.15159-.41527Zm-.92282.90041c-.07362.17767-.17121.34445-.29003.49569-.15328.20297-.42492.27577-.65916.17666-.26493-.08604-.43689-.34181-.41659-.61961.03002-.25489.12041-.49893.26366-.71189.06724-.13183.14106-.05273.20697-.01977.26366.13183.52733.2808.79099.40867.13843.058.17534.13578.10547.27026h-.00131Z" style="fill: #fff;"/>
      <path id="Path_361" data-name="Path 361" d="m177.87198,38.99549c-.09152.71519-.53773,1.33591-1.18649,1.65053-.55617.30093-1.2401.22919-1.72172-.18061-.25155-.18455-.48665-.39054-.70266-.61565-.50096-.48119-1.00324-.96369-1.51342-1.43433-.13974-.13183-.15161-.20038-.00791-.3454.59588-.59588.59061-.60247,1.18649-.01186.43944.43065.87493.86174,1.30645,1.29327.17575.19001.39017.34016.62884.44032.286.12402.61934.04948.82526-.18456.23386-.22202.29586-.57048.15293-.85954-.12492-.25015-.29678-.47393-.50623-.65916-.52733-.52733-1.06124-1.0652-1.60703-1.58198-.15951-.15293-.13183-.23202,0-.37572.5471-.54578.54183-.55105,1.10211,0,.47196.47064.95182.93337,1.41191,1.41455.39625.37928.62374.90169.63147,1.45015Z" style="fill: #fff;"/>
      <path id="Path_362" data-name="Path 362" d="m169.75511,73.43514c-.03138-.07999-.05607-.16245-.07383-.24652q-.16874-.57874-.75144-.55764c-.12936-.00169-.25872.00316-.38758.0145-.1278.04019-.26398-.03084-.30416-.15863-.00628-.01995-.00994-.04063-.01091-.06152-.06153-.28342-.14393-.56191-.24653-.83318-.07251-.18588-.00791-.26366.14238-.35462.2307-.13183.44691-.29794.67498-.43636.1081-.06592.14897-.13183.10547-.26366-.09624-.29398-.17797-.59324-.27157-.90701-1.32886.85295-2.58653,1.76786-3.92067,2.56544-.13183.08041-.13183.16084-.08701.29003.09755.29398.19247.59192.26366.89514.04351.19248.1437.22939.31771.22675.40868,0,.81604,0,1.22472.00659l3.12572.02109c.13709.00923.31111.04483.19906-.20038Zm-4.10919-.69739l1.57143-.9861c.09755.32958.18588.63411.28344.96633-.63147.0145-1.23394-.01582-1.85355.01977h-.00132Z" style="fill: #fff;"/>
      <path id="Path_363" data-name="Path 363" d="m229.65275,82.64753c-.77517-1.02828-1.55429-2.05525-2.34396-3.10067-.14028.21217-.29165.4168-.4535.61301-.17534.19248-.14897.3309.01846.51151.19643.21094.47986.44032.50492.6842.03032.26366-.32035.47986-.46009.74353-.15424.28871-.32958.33485-.64202.21225-.76858-.30057-.76594-.27421-1.25768.38231-.17534.23203-.09755.27684.13183.35199,1.28272.42186,2.56676.84504,3.83894,1.29722.32694.11733.52733.0936.69212-.22411.13975-.26366.46801-.497.46404-.74222s-.31771-.49173-.49305-.72903Zm-.60115.73035l-1.65448-.61697c.16742-.23466.32563-.45087.47723-.66839.06855-.09887.12129-.13183.21357-.01714.32958.41923.66706.83185,1.00324,1.24449l-.03956.05801Z" style="fill: #fff;"/>
      <path id="Path_364" data-name="Path 364" d="m236.21004,67.95623c-.28871-.13975-.57478-.2874-.86218-.43109l-3.27733-1.64393c-.02219.21681-.05963.43179-.11206.64334-.10151.31639-.00791.46668.30453.5972.76067.31903.73298.33485.60906,1.14826-.05537.35727-.1516.52733-.55501.55632-.79099.06855-.79099.10547-.90701.90701-.02769.18852-.0356.28476.22675.2452,1.36973-.19775,2.74341-.37572,4.11578-.54842.27684-.0356.44955-.10415.45219-.43373.01522-.26765.05941-.53287.13183-.79099.03765-.09629-.00989-.20487-.10618-.24252-.00666-.00261-.01347-.00482-.02038-.00665Zm-2.45997.76331c-.16084.01846-.17798-.05142-.15424-.18061.04746-.2518.08965-.5036.14106-.79099l1.72435.78176c-.60907.06459-1.15881.1226-1.70854.18983h-.00264Z" style="fill: #fff;"/>
      <path id="Path_365" data-name="Path 365" d="m206.41086,27.50902c-.48646-.07119-.90304-.11601-1.31831-.19775-.23071-.04482-.2953.03296-.32563.24521-.09755.68684-.10283.68552.59192.7699.21362.0192.42613.04912.63675.08965.13183.03164.37308-.04351.3955.11601.0117.24611-.02366.4922-.10415.72507-.02373.08437-.17666.029-.26366.01714-.41395-.05537-.82922-.1081-1.24185-.18061-.17269-.03164-.21752.03032-.24917.18456-.18325.87932-.18588.878.69212.98478.31903.03955.63807.08701.95709.13183.08041.01055.15556.01846.14238.12524-.02636.21357-.04482.42845-.08569.63806-.02769.14106-.15688.08833-.24125.07646-.85031-.11865-1.69931-.25048-2.54962-.36385-.17534-.02241-.17402-.10547-.15556-.23598.18193-1.24317.35594-2.48634.54315-3.72819.08965-.59588.10019-.59588.70662-.51414.67103.08965,1.33941.1872,2.01043.26366.18193.02241.24652.08965.20565.26366-.02799.09294-.04394.18908-.04746.28607.00394.27289-.09624.38363-.29926.30321Z" style="fill: #fff;"/>
      <path id="Path_366" data-name="Path 366" d="m183.11096,30.18519c.13183.03164.14765.15161.19907.23993.27421.46932.27157.47064-.18852.73298-.30717.17534-.61302.35463-.92282.52733-.13183.06987-.15556.13183-.08174.27157.34804.68289.34276.68552,1.01115.30321.10151-.05932.20302-.11865.30585-.17665.54183-.30717.53392-.30189.84109.2307.09096.15688.08437.22675-.08042.31244-.37044.19511-.72507.41791-1.0942.61565-.14897.08042-.17534.15161-.08042.29662.15161.23202.23466.59851.44032.68552s.47591-.21621.71848-.34276.50623-.2808.7554-.42977c.10942-.0646.16874-.06723.24916.05932.37177.57083.37835.56688-.2017.89777l-1.64921.94128q-.35463.2017-.56688-.16874c-.35595-.62488-.68421-1.26822-1.07838-1.86805-.33485-.50887-.62884-1.03751-.93996-1.55825-.07646-.13183-.10942-.20565.05669-.29398.73562-.39549,1.46465-.80549,2.195-1.21021l.11207-.06592Z" style="fill: #fff;"/>
      <path id="Path_367" data-name="Path 367" d="m169.49145,52.70201c-.05479.58369-.27372,1.13994-.63147,1.60439-.11865.16742-.21488.16084-.36386.05009s-.40736-.1727-.46668-.31772.18456-.30058.27816-.46273c.16209-.25352.27066-.5375.31903-.83449.04926-.21829-.05466-.44238-.25312-.54578-.18821-.1023-.42277-.05383-.55501.1147-.2017.20565-.37572.44032-.56951.65916-.35153.51817-1.01611.72215-1.5978.49042-.68042-.29214-1.02784-1.05315-.80285-1.75863.11061-.43267.31544-.83557.59983-1.17989.08174-.11337.15556-.11206.26366-.0356.16479.11865.40868.19116.4891.34935.09228.18456-.18325.3164-.26366.497-.10694.20986-.17568.43707-.20302.67102-.02561.17596.05843.34979.21225.439.16887.09121.37866.05036.50096-.09756.21357-.22675.40868-.47064.61961-.69871.28339-.39098.75172-.60385,1.23263-.56028.77254.10943,1.20626.64862,1.19176,1.61626Z" style="fill: #fff;"/>
      <path id="Path_368" data-name="Path 368" d="m224.87913,84.44176c-.28659.12526-.55703.28461-.80549.47459-.15122.12123-.28053.26748-.38231.43241-.1255.17096-.11954.40515.0145.56951.12573.15776.33997.21454.52733.13975.16326-.0517.32272-.11468.47723-.18852.22171-.1099.45348-.1982.69212-.26366.45274-.14544.94863-.00879,1.26295.34804.33194.35424.42533.87019.23861,1.31831-.24754.62605-.7214,1.13614-1.32754,1.42905-.10942.06064-.1872.05932-.25312-.07383-.08965-.18193-.2808-.35067-.28476-.52733-.00659-.21357.29925-.20961.44427-.33748.20003-.14458.36941-.3274.49832-.53787.09746-.1491.08898-.34376-.02109-.48382-.11114-.14013-.30248-.18823-.46668-.11733-.32958.12524-.65125.27421-.9861.3955-.44068.20176-.95718.14019-1.33809-.15952-.46872-.34284-.6465-.95912-.43241-1.49893.28062-.70649.8274-1.27457,1.52265-1.58197.07133-.05769.17591-.04664.23362.02468.01364.01688.02385.03625.03004.05705.10679.1964.23598.38096.35595.58135Z" style="fill: #fff;"/>
      <path id="Path_369" data-name="Path 369" d="m211.40199,28.84578c-.38449-.29492-.85485-.45603-1.33941-.45877-.19396.00547-.38397.05602-.55501.14765-.54619.36613-.8494,1.00085-.79099,1.6558.06553.58678.50617,1.06217,1.08629,1.17198.18459.05759.37622.08953.56951.09492.24917,0,.29662.08042.27421.3164-.05142.55897-.03823.55501-.60642.5036-.32087-.03101-.63588-.10643-.936-.22411-.88109-.27757-1.48241-1.09195-1.48837-2.0157-.03289-1.00473.53808-1.93178,1.45014-2.35451.87349-.31971,1.84761-.19795,2.61554.32694.13183.07778.13183.16347.05405.28607-.1147.16874-.21225.34803-.33354.54973Z" style="fill: #fff;"/>
      <path id="Path_370" data-name="Path 370" d="m193.44391,31.35981c-.14502.02241-.14765-.08042-.16347-.17929-.21357-1.2814-.43241-2.56149-.64465-3.84289-.08042-.48514-.07251-.48646.41923-.57083.6763-.11601,1.35391-.22807,2.02889-.35331.17665-.03296.24125,0,.26366.19116.0936.60379.10283.60379-.49832.71453-.30585.05669-.6117.12524-.92282.15556-.20038.02109-.22543.1081-.18852.27289.04875.17585.08054.35596.09492.53787.00659.26366.14238.26366.33617.2228.37967-.07251.7633-.1226,1.14166-.19906.15161-.03164.19907,0,.22939.15556.1226.63938.13183.63806-.497.75012-.24113.0524-.48494.09157-.73035.11733-.24653.01582-.30058.11469-.2518.3454.08833.41923.14502.84504.22939,1.2669.03955.19775.00923.2953-.22148.30717-.21045.02219-.41921.0583-.62488.1081Z" style="fill: #fff;"/>
      <path id="Path_371" data-name="Path 371" d="m233.92013,54.82713l1.91023.3309c.08041.0145.18193,0,.20829.10942.07514.3309.14765.65916.23334,1.04806-.63807-.18852-1.23526-.31903-1.79686-.54051-.74743-.29829-1.57681-.3198-2.33869-.06064-.65125.20434-.64202.16347-.82526-.48382-.08833-.31244-.01319-.43372.29267-.44954.03164,0,.06327-.0145.09492-.01846.95467-.10336,1.83672-.55825,2.47448-1.27613.3599-.37572.78308-.69212,1.20494-1.05465.07646.32035.13183.60247.21489.87536.07451.17014.00113.36873-.16611.44954-.497.33221-.97819.69739-1.50683,1.07047Z" style="fill: #fff;"/>
      <path id="Path_372" data-name="Path 372" d="m174.50896,43.26815c-.18852.23861-.37967.49569-.59193.7343-.04746.05273-.12524-.05537-.18456-.0936-.89909-.58665-1.74677-1.24317-2.60235-1.88914-.21357-.15951-.33749-.16874-.46273.07383-.0532.09472-.11688.18317-.18984.26366-.12392.1437-.21357.44032-.36122.41131-.22661-.09135-.43343-.22564-.60906-.39549-.09228-.0646-.03296-.1226.01186-.18456.63982-.86394,1.27744-1.72787,1.91288-2.59181.08042-.10942.13974-.09624.2307-.02241.13211.11025.27079.21239.41527.30585.14238.08965.1147.1727.02768.28212-.16479.21093-.31376.43768-.48514.64202-.1226.14897-.11337.2307.05009.34672.8925.63279,1.77577,1.27613,2.66036,1.91947.06592.04481.16216.06986.17798.19774Z" style="fill: #fff;"/>
      <path id="Path_373" data-name="Path 373" d="m200.06185,28.84315c0-.53787-.00791-1.07574,0-1.61362,0-.18852-.03296-.27157-.24257-.26366-.26366.01714-.53787,0-.80549,0-.13183,0-.20565-.03691-.18588-.18061.001-.01096.001-.02199,0-.03296-.02768-.67761-.02768-.67366.64202-.65916.88063.01846,1.76127.03691,2.63663.03691.21752,0,.26366.06855.26366.27553-.01055.61829,0,.61961-.60774.60379q-.67103-.01846-.67893.65916c-.01319.93468-.0356,1.86937-.04087,2.80537,0,.19116-.04746.2518-.2518.2518-.80286,0-.7989.00659-.77913-.78308.00923-.36517,0-.73035,0-1.09552l.0501-.00396Z" style="fill: #fff;"/>
      <path id="Path_374" data-name="Path 374" d="m166.67158,49.22298c-.21752-.10283-.44427-.20038-.65916-.31903-.08833-.04746-.01055-.13183.01846-.19775.439-.95446.88195-1.9076,1.31831-2.86338.05405-.11865.09756-.15161.23466-.09624.64861.26366.64993.25575.35595.89514q-.24916.54051.30058.79099c.86613.40209,1.72963.80813,2.5984,1.2023.17006.07778.2373.1437.13183.32694-.13183.22148-.17665.56951-.3599.65916s-.4535-.15951-.68289-.26366c-.81999-.37308-1.63867-.75012-2.44943-1.13902-.18061-.08569-.25575-.06328-.32563.12392-.09492.25048-.21752.49042-.33485.73167-.03032.05933-.03164.15952-.14633.14897Z" style="fill: #fff;"/>
      <path id="Path_375" data-name="Path 375" d="m180.27131,37.42406c-.058-.06987-.11601-.13183-.16742-.2017l-1.82586-2.41779q-.25575-.34012-.58401-.0936c-.1727.13183-.34804.25444-.51282.39549-.10547.08701-.16611.08042-.26366-.029-.45482-.52733-.45877-.52733.08701-.93864.71189-.53787,1.42642-1.06915,2.13303-1.61362.14238-.10942.20961-.10547.32167.04087.39549.51678.39549.51282-.1226.90832q-.48778.37177-.1226.85822c.57479.7633,1.14825,1.52924,1.73226,2.28596.1147.15161.13183.23861-.04878.34408s-.32826.24257-.49173.36386c-.03824.029-.08175.05932-.13447.09755Z" style="fill: #fff;"/>
      <path id="Path_376" data-name="Path 376" d="m227.83479,38.80301c.06855-.02109.09096.02241.11601.05405.16874.20829.33881.41659.50227.62884.11601.15161-.05405.18325-.11997.2373-.83318.6763-1.66767,1.35259-2.51271,2.0157-.17006.13183-.17269.21357-.0356.37177.2953.34012.56424.70398.85295,1.05465.10151.1226.10942.18852-.02636.29926-.51678.42186-.51282.42845-.93205-.09492s-.83318-1.03883-1.25108-1.55693c-.07646-.0936-.1516-.15951,0-.27684,1.11134-.88195,2.21213-1.77182,3.31688-2.66036.02636-.03164.06591-.05537.08965-.07251Z" style="fill: #fff;"/>
      <path id="Path_377" data-name="Path 377" d="m163.52476,61.57031c-.2017,0-.24521-.06064-.24257-.25575.01582-.81208.00923-.80286.80022-.7633,1.21109.05977,2.42175.11162,3.63196.15556.20566.00659.29794.05405.24916.27289-.01422.09555-.02039.19213-.01846.28871-.02109.49173-.01977.49173-.50096.468-.61038-.029-1.22076-.05537-1.83114-.08305l-2.08821-.08306Z" style="fill: #fff;"/>
      <path id="Path_378" data-name="Path 378" d="m172.61717,45.92324c-.16611.27157-.32167.53919-.49305.7989-.04746.07251-.1147,0-.16215-.03296-1.21812-.72068-2.43537-1.44223-3.65173-2.16467-.11865-.06987-.15424-.13183-.06064-.24784.00543-.00891.01027-.01815.0145-.02768q.39549-.72507,1.09684-.30717c1.0151.60115,2.02889,1.20362,3.04135,1.80741.07778.04483.17402.07251.21489.17402Z" style="fill: #fff;"/>
      <path id="Path_379" data-name="Path 379" d="m170.61861,75.44031c0,.09623-.08569.10151-.15029.13183-1.29019.54929-2.57994,1.09904-3.86925,1.64921-.13183.05932-.20038.0356-.26366-.10283-.36517-.76067-.36913-.75934.38759-1.0797,1.0942-.46273,2.19104-.92282,3.27997-1.39478.19775-.08569.27553-.05273.34144.14238.07383.22016.17929.43109.27421.65389Z" style="fill: #fff;"/>
      <path id="Path_380" data-name="Path 380" d="m177.94712,85.7047c-.06196.07383-.09887.12392-.14238.16874-.97556.99929-1.95506,1.99725-2.92666,3.00049-.1226.13183-.19511.11864-.30453,0-.17929-.19775-.49437-.36913-.51678-.57874-.01846-.16611.30717-.37572.48646-.56029.82526-.84636,1.65712-1.68744,2.47579-2.5404.14897-.15556.23861-.15952.37572,0,.12996.14368.26771.2801.41263.40867.04446.03668.09112.07059.13975.10152Z" style="fill: #fff;"/>
      <path id="Path_381" data-name="Path 381" d="m178.92663,90.61806c-.36381.01311-.66936-.27119-.68246-.635-.00029-.00805-.00043-.0161-.00043-.02416-.00958-.37338.28534-.68384.65872-.69342.00015,0,.00029-.00001.00044-.00001.37232.00173.6779.29511.69475.66706.0015.37359-.29748.67904-.67102.68553Z" style="fill: #fff;"/>
      <path id="Path_382" data-name="Path 382" d="m221.09952,90.61938c-.36402.00453-.66278-.28689-.66731-.6509-.00011-.00934-.00003-.01869.00025-.02803.004-.37351.31004-.67305.68355-.66904s.67305.31004.66904.68355c-.00281.36986-.30492.6674-.67478.6646-.00358-.00003-.00717-.00009-.01075-.00017Z" style="fill: #fff;"/>
      <path id="Path_383" data-name="Path 383" d="m211.24643,91.42223c.22782-.00731.45123.06391.6328.2017.04878.0356.11864.07251.08041.1516s-.10151.04878-.16611.03955c-.44032-.06987-.69475.04218-.81999.35859-.12619.33827.02346.71721.34672.878.06987.04878.26366.04218.17402.2017s-.21225.02241-.30453-.01977c-.24632-.11138-.45907-.28549-.61697-.50492-.21886-.23525-.27118-.58057-.13183-.87009.15778-.29275.47409-.4641.80549-.43635Z" style="fill: #f4f4f6;"/>
      <path id="Path_384" data-name="Path 384" d="m194.62248,93.87298c-.04309-.39373.24116-.74784.63489-.79093.00018-.00002.00036-.00004.00054-.00006.44926-.03026.86994.22215,1.05465.6328.0145.05142.0356.10547-.01318.14897-.06987.06196-.1147,0-.15688-.04087-.1363-.17188-.35374-.25826-.57083-.22675-.3605.05065-.61168.38396-.56103.74446.01015.07227.03223.14234.06534.20736.0321.07925.07184.15519.11865.22675.04746.07383.06064.13183-.02637.18193s-.11337-.0145-.15161-.06064c-.24764-.28403-.38721-.64626-.39418-1.02302Z" style="fill: #f4f4f6;"/>
      <path id="Path_385" data-name="Path 385" d="m208.30791,98.34603c.08965-.04482.04746-.13183.07514-.20434.06013.05864.07795.14825.04482.22543-.03559.06592-.08832.00792-.11996-.02109Z" style="fill: #ba9593;"/>
      <path id="Path_386" data-name="Path 386" d="m229.68702,62.44831c.03157,4.18081-.83381,8.31978-2.53776,12.13772-1.10931,2.54732-2.59932,4.91123-4.41899,7.0108-4.24246,4.9845-10.013,8.42754-16.41434,9.79376-8.54169,1.84904-17.46435-.15225-24.39805-5.47233-3.54115-2.70491-6.42537-6.17499-8.43722-10.15102-1.57933-3.03358-2.58028-6.33459-2.9517-9.73444-.70055-5.53013.23249-11.14439,2.68409-16.15067,1.90279-3.98241,4.68601-7.48014,8.13928-10.2288,2.44112-1.96245,5.17812-3.52518,8.10896-4.62992,5.28324-1.97655,11.01536-2.42967,16.54353-1.30777,6.29375,1.28142,12.00154,4.57109,16.26537,9.37454,3.64249,4.03641,6.06529,9.02326,6.98707,14.3815.30159,1.64139.4455,3.30785.42977,4.97664Z" style="fill: #ce9e4f;"/>
      <path id="Path_387" data-name="Path 387" d="m206.18278,96.72845c0,.11074,0,.22016-.00659.32958-.07282-.09864-.07011-.23393.00659-.32958Z" style="fill: #641514;"/>
      <path id="Path_388" data-name="Path 388" d="m206.18279,96.72845c0,.11074,0,.22016-.00659.32958-.22017-.1081-.18457-.22411.00659-.32958Z" style="fill: #fff;"/>
      <path id="Path_389" data-name="Path 389" d="m200.21609,80.93373c-3.50325.03453-6.98228-.58376-10.25912-1.82323-3.14265-1.17124-5.97011-3.05681-8.25924-5.50792-1.5623-1.69289-2.72026-3.71809-3.38675-5.92319-.15517-.45369-.022-.95619.33749-1.27349.36913-.36262.80583-.64928,1.28535-.84372,1.53622-.64165,3.1371-1.1159,4.77494-1.41455,2.74753-.55669,5.52998-.92448,8.3278-1.10079.26366-.01846.26366-.10283.18061-.31244-.62416-1.47578-1.03477-3.03299-1.21944-4.62465-.25528-2.47667-.00456-4.97938.73694-7.35619.70305-2.27143,1.74052-4.42546,3.07826-6.39119.68421-1.02828,1.33545-2.07898,1.99593-3.12177.92514-1.43634,1.53988-3.05019,1.80477-4.73803.03164-.20698.10942-.28607.32958-.2808.48909.01055.497,0,.58401.50096.35283,1.81892,1.0582,3.55122,2.07635,5.09924.80944,1.30513,1.6624,2.5839,2.47184,3.88903.33881.54578.60774,1.13639.92282,1.69667,1.01596,1.88067,1.69166,3.92605,1.99593,6.04183.52292,3.0811.16606,6.24722-1.0296,9.1346-.17402.42714-.17006.41923.30057.45614,3.4845.22084,6.94124.76232,10.32636,1.61757,1.03361.25172,2.03213.63031,2.9728,1.12716.55964.2418.99663.70116,1.21021,1.27217.03985.13943.03523.28781-.01319.4245-.79317,2.82138-2.37243,5.35899-4.55346,7.31665-.82006.77604-1.7122,1.47218-2.66432,2.07899-2.8278,1.79315-5.98097,3.01204-9.27962,3.58714-.56028.09623-1.12321.18456-1.68744.26366-1.11412.14511-2.23687.21381-3.36037.20565Z" style="fill: #181412;"/>
      <path id="Path_390" data-name="Path 390" d="m184.1867,80.97986c1.05465.18325,2.1093.36386,3.17186.54974,2.25081.39636,4.5016.7945,6.75241,1.19439.13183.02373.27421.05142.46668.08833l-1.14166,1.35259,10.69285.92282-1.03224.87405,10.1273.44427v.06196l-13.52591,1.33282,1.72436-1.53979-11.08703-1.11925,1.82059-1.35523-7.96658-2.73946c-.01582-.01319-.02241-.02636-.01714-.03955s.00922-.02768.0145-.02768Z" style="fill: #fff;"/>
      <path id="Path_391" data-name="Path 391" d="m184.18407,80.97986v.06196l-.29267-.07778c.08926-.06379.2108-.05722.29267.01582Z" style="fill: #ead9bd;"/>
      <path id="Path_392" data-name="Path 392" d="m179.57919,68.72744c1.34482.468,2.727.82082,4.1316,1.05466,1.15616.22806,2.32419.37704,3.49485.5036,1.44712.18261,2.90514.26499,4.36362.24652,1.9284-.07143,3.84475-.33642,5.72017-.79099.86797-.19892,1.72296-.45075,2.56017-.75407.14931-.06006.31606-.06006.46537,0,1.67562.60439,3.41121,1.02735,5.17702,1.26163.80417.11864,1.61757.16874,2.43097.23071.94183.06415,1.88717.05622,2.82778-.02373,1.15221-.08965,2.30046-.21752,3.44871-.35727,1.61582-.20249,3.21662-.51075,4.79208-.92282.49569-.13183.97819-.30585,1.50288-.47196-.16811.50285-.38397.98844-.64465,1.45014-1.27963,2.33927-3.11617,4.32704-5.34708,5.7874-2.6601,1.79553-5.65763,3.03124-8.8103,3.63195-1.42012.27129-2.85676.44746-4.30034.52733-1.65966.07573-3.32275.01045-4.97136-.19511-2.38901-.28974-4.726-.91093-6.94357-1.84564-1.96395-.80262-3.78828-1.91146-5.40509-3.28524-.88502-.7824-1.71038-1.6298-2.46921-2.53511-.85005-1.02499-1.53624-2.17545-2.03416-3.41048,0-.0132.00791-.03693.01054-.10152Z" style="fill: #781e19;"/>
      <path id="Path_393" data-name="Path 393" d="m203.49475,56.84943c.36589-.83001.5099-1.74082.41791-2.64322-.07119-.72507-.21752-1.44356-.32958-2.16467-.14208-1.05536-.19588-2.12074-.16084-3.18505.00062-.1074.02259-.2136.0646-.31244.10057-.17824.04236-.40408-.13183-.51151-.16266-.12086-.39034-.09923-.52733.05009-.19775.16347-.38099.34276-.60379.54446l-.72243-1.57275-.92282,1.26954c-.19247-.17665-.21225-.49173-.52733-.51678s-.40736.21752-.54974.46405l-.87404-1.20362c-.23721.55156-.51665,1.08398-.83581,1.59252-.21357-.18852-.41263-.36781-.6117-.54578-.13478-.16657-.37324-.20518-.55369-.08965-.19907.13183-.19247.31376-.13183.53787.08468.57401.09796,1.1563.03955,1.73358-.01804.98908-.13195,1.97407-.34012,2.94116-.27627,1.2015-.17828,2.45876.2808,3.60296-.50832.00138-1.01233.09334-1.48838.27157-.21357.08437-.3889.20302-.3599.46668.02505.24257.18852.33485.41527.37177.28607.04746.40736.2953.55501.50228.0791.10942-.01714.14633-.08833.19116-.20829.13183-.4245.25444-.62356.39549-.29135.20961-.30321.55897-.01186.71453.33218.1971.6455.42436.936.67893.55878.48075,1.27198.74422,2.00911.74221.09887,0,.21357-.04219.24653.12524.172.66011.55652,1.24524,1.0942,1.66503.13232.10744.20573.27137.19775.44163-.00703,1.53804-.00703,3.07607,0,4.6141,0,.21357-.04482.32694-.26366.38231-.34144.08569-.67102.21621-1.00983.30585-.13183.0356-.27421.07778-.39549-.08965-1.51484-1.92878-2.78236-4.03955-3.77304-6.28309-1.61585-4.00109-1.63002-8.47056-.03955-12.48181.66975-1.80163,1.55506-3.5156,2.63663-5.10452.39549-.59851.7699-1.21812,1.18649-1.80082,1.00866-1.42523,1.80036-2.99217,2.34924-4.6497.09228.26366.16347.46009.23598.65916.57775,1.50389,1.32759,2.93588,2.23454,4.26738,1.08481,1.55981,2.06134,3.19221,2.92271,4.88568.88477,1.79643,1.49026,3.71735,1.79554,5.69644.44346,2.8632.08291,5.79331-1.04147,8.46358-1.00566,2.2514-2.29008,4.3676-3.82311,6.29891-.06334.12951-.21897.18412-.34935.1226-.33221-.1147-.67103-.21488-1.00719-.31376-.12849-.02151-.21524-.14307-.1938-.27157.00616-1.58197.00616-3.16396,0-4.74593.00104-.13901.06746-.26942.17929-.35199.55433-.43472.95525-1.03518,1.14429-1.71381.02769-.13183.10679-.13183.20961-.13183.65886-.03525,1.28888-.28161,1.79686-.70266.3067-.26891.63719-.50939.98742-.71848.18485-.08935.26227-.31165.17292-.49651-.02905-.06011-.07375-.11128-.12942-.14815-.227-.17997-.46816-.34133-.72111-.4825-.12261-.07251-.15556-.12524-.0646-.24125.15952-.20038.29135-.42054.59192-.45086.19353-.01246.34441-.17256.3454-.36649.01367-.19007-.10626-.36421-.28871-.41923-.49071-.20425-1.01899-.30263-1.55032-.28871Z" style="fill: #fff;"/>
      <path id="Path_394" data-name="Path 394" d="m203.11376,68.95815c.68157-.93205,1.35391-1.84564,1.94978-2.8146.2808-.45482.55105-.92282.80944-1.38555.19545-.27407.36953-.56274.52073-.86349.05669-.15424.19248-.09623.30453-.08965,1.24449.07251,2.48634.19248,3.7216.34804,2.35694.25899,4.69205.68812,6.98707,1.28404.86385.21793,1.70314.52361,2.5048.91228.23946.12074.46911.26003.68685.41659.49569.36122.47986.60379-.0435.93996-.24361.15584-.50524.28155-.77913.3744-1.32166.42353-2.6732.74743-4.04327.96896-1.82918.31017-3.67413.51878-5.52638.62488-1.29815.07193-2.60018.02206-3.88902-.14897-.96764-.11864-1.92474-.27948-2.8792-.47723-.1002-.02372-.20039-.05668-.32431-.08964Z" style="fill: #fff;"/>
      <path id="Path_395" data-name="Path 395" d="m190.64513,69.71618c-1.55815-.05095-3.11247-.18518-4.65629-.40209-1.75829-.22907-3.49897-.57747-5.20998-1.04279-.48951-.11817-.95567-.31782-1.37896-.5906-.42845-.29003-.44559-.53523-.0356-.85031.64635-.46397,1.36925-.81069,2.13567-1.02433,2.01067-.61564,4.06651-1.07274,6.14862-1.3671,1.90101-.28608,3.81389-.47591,5.73071-.62093.15029-.01055.27421-.02373.36517.16215.85154,1.67119,1.85599,3.25995,3.00049,4.74593.14765.19775.17665.26366-.11601.32563-1.96456.43816-3.97101.66095-5.98383.66443Z" style="fill: #fff;"/>
      <path id="Path_396" data-name="Path 396" d="m200.01571,49.02523c.87469,1.49952,1.48935,3.13624,1.81795,4.84085.19824.98338.14014,2.00123-.16874,2.95566-.21299.59937-.57127,1.13658-1.04279,1.56352-.385.23453-.86871.23453-1.25371,0-.71798-.66052-1.16561-1.56375-1.25635-2.53512-.11812-1.9037.29881-3.80247,1.20362-5.48155.19418-.46713.42839-.91659.70002-1.34336Z" style="fill: #c4111b;"/>
      <path id="Path_397" data-name="Path 397" d="m200.10271,59.43596c.76899.04519,1.35574.70521,1.31056,1.47419-.01217.20697-.07032.40862-.17022.59029-.28412.44206-.63601.83667-1.04279,1.16935-.10151.10019-.17402.02241-.2452-.04351-.32757-.27668-.62297-.58933-.88063-.93205-.47311-.67132-.31241-1.59906.35891-2.07217.02697-.019.05455-.0371.08273-.05427.17904-.09881.38254-.14454.58665-.13183Z" style="fill: #c4111b;"/>
      <path id="Path_398" data-name="Path 398" d="m202.65629,49.34558c-.01264,1.6975.14101,3.39215.45877,5.05969.09731.82728-.10015,1.66237-.55764,2.35847.04746-.27157.10547-.54314.14106-.81604.13292-1.60117-.1212-3.21084-.74089-4.6932-.03691-.10151-.07514-.2017-.11469-.30058q-.26366-.67234.27157-1.14825c.15028-.13447.30584-.26103.54181-.4601Z" style="fill: #c4111b;"/>
      <path id="Path_399" data-name="Path 399" d="m197.2868,56.65036c-.27791-.52079-.43176-1.09873-.44954-1.68876-.00264-.73278.08099-1.46332.24916-2.17654.18476-1.03679.27302-2.08847.26366-3.14154,0-.07251,0-.14502.01186-.26366.34012.27816.64598.53523.96237.78176.14238.10942.08569.21357.03428.33617-.40312.8392-.71812,1.71794-.93996,2.62213-.26556,1.09942-.29298,2.24291-.08042,3.35379.0272.06361.00567.13757-.05141.17666Z" style="fill: #c4111b;"/>
      <path id="Path_400" data-name="Path 400" d="m195.80501,59.39641c.78778-.48297,1.74638-.60033,2.6274-.32167.18325.05669.22411.11601.08042.27816-.20544.22246-.34827.49538-.41395.79099-.04614.22939-.18193.26366-.37308.24389-.53982-.0386-1.05227-.25246-1.45937-.60906l-.46141-.38231Z" style="fill: #c4111b;"/>
      <path id="Path_401" data-name="Path 401" d="m201.49749,59.13144c.84304-.33436,1.79282-.26391,2.57731.19116.08965.04614.10151.09756.01977.16611-.45871.47254-1.05727.78498-1.70722.89118-.13183.01186-.22939-.01186-.26366-.15951-.10289-.41436-.31982-.7916-.62621-1.08893Z" style="fill: #c4111b;"/>
      <path id="Path_402" data-name="Path 402" d="m196.08317,57.71292c.44999-.19359.97367-.02035,1.21944.4034-.14502.01186-.2808.01714-.41263.0356q-.54578.07647-.80681-.439Z" style="fill: #bf121b;"/>
      <path id="Path_403" data-name="Path 403" d="m202.65366,58.08073c.30585-.50491.76067-.42714,1.2168-.40868-.25706.60379-.28079.6117-1.2168.40868Z" style="fill: #bf121b;"/>
      <path id="Path_404" data-name="Path 404" d="m201.34589,48.6416c.06855.26366.36649.44559.07119.68684-.06987.058-.13183.22279-.24652.10547-.08965-.09756-.20829-.23334-.10679-.39549.07118-.11601.15819-.2228.28212-.39682Z" style="fill: #bc111c;"/>
      <path id="Path_405" data-name="Path 405" d="m199.02566,49.07664c-.058.13183-.0936.29926-.22016.37967-.0646.04087-.13183-.08437-.20038-.13183-.16215-.11206-.05009-.2307,0-.33485s.04746-.28476.18852-.24653c.14106.03823.20301.18589.23202.33354Z" style="fill: #bc111c;"/>
    </g>
  </g>
  <g id="TextLine2">
    <g>
      <path d="m108.52539,267.66748v-2.62402h6.80273v2.62402h-6.80273Z" style="fill: #fff;"/>
      <path d="m131.24512,273.6001h-3.1377v-19.27441h10.88965v2.66309h-7.75195v6.01172h7.25098v2.65039h-7.25098v7.94922Z" style="fill: #fff;"/>
      <path d="m155.09375,266.27002c0,1.21289-.1582,2.29004-.47461,3.23047s-.77734,1.7334-1.38379,2.37891c-.60645.64648-1.33594,1.13867-2.18848,1.47656-.85254.33887-1.81445.50781-2.88672.50781-1.00195,0-1.9209-.16895-2.75586-.50781-.83496-.33789-1.55859-.83008-2.16797-1.47656-.61133-.64551-1.08398-1.43848-1.41797-2.37891s-.50098-2.01758-.50098-3.23047c0-1.6084.27832-2.97266.83691-4.09375.55859-1.12012,1.35547-1.97461,2.39258-2.56445,1.03711-.58789,2.27246-.88281,3.70508-.88281,1.34473,0,2.53125.29492,3.55957.88281,1.02832.58984,1.83301,1.44629,2.41309,2.57129s.86914,2.4873.86914,4.08691Zm-10.58594,0c0,1.06348.12891,1.97363.38867,2.72852.25977.75684.66211,1.33398,1.20703,1.73438.54492.39941,1.24805.59961,2.10938.59961s1.56445-.2002,2.10938-.59961c.54492-.40039.94434-.97754,1.19922-1.73438.25488-.75488.38281-1.66504.38281-2.72852s-.12793-1.9668-.38281-2.70898c-.25488-.74316-.6543-1.30957-1.19922-1.70117-.54492-.39062-1.25293-.58594-2.12305-.58594-1.2832,0-2.21875.43066-2.80859,1.29102-.58789.8623-.88281,2.09668-.88281,3.70508Z" style="fill: #fff;"/>
      <path d="m171.37598,259.00635v14.59375h-2.43848l-.42188-1.96484h-.17188c-.30762.50195-.69922.91699-1.17383,1.24609-.47461.33008-1.00195.57617-1.58203.73828-.58008.16309-1.19043.24414-1.83203.24414-1.09863,0-2.03711-.18652-2.81445-.56055-.77734-.37305-1.37305-.95117-1.78711-1.7334-.41211-.78223-.61914-1.79297-.61914-3.03223v-9.53125h3.11133v8.95117c0,1.13379.23047,1.98242.69141,2.54492.46289.5625,1.18066.84375,2.15625.84375.94043,0,1.6875-.19336,2.24121-.58008s.94629-.95801,1.18066-1.71484c.23242-.75488.34863-1.68262.34863-2.78125v-7.26367h3.11133Z" style="fill: #fff;"/>
      <path d="m183.41211,258.729c1.64453,0,2.9248.42383,3.84375,1.27246.91797.84766,1.37695,2.20801,1.37695,4.08008v9.51855h-3.09766v-8.93848c0-1.13379-.23242-1.98438-.69922-2.55078-.46484-.56738-1.18555-.85059-2.16211-.85059-1.41406,0-2.39648.43555-2.94629,1.30469-.5498.87109-.82324,2.13184-.82324,3.78418v7.25098h-3.09863v-14.59375h2.41309l.43457,1.97656h.1709c.31641-.50879.70996-.92871,1.18066-1.25879.46973-.3291.99707-.57715,1.58203-.74512.58398-.16602,1.19238-.25,1.8252-.25Z" style="fill: #fff;"/>
      <path d="m197.86133,273.86377c-1.74023,0-3.13477-.63477-4.18555-1.90527-1.05078-1.26953-1.5752-3.14355-1.5752-5.62207,0-2.50586.53418-4.39941,1.60254-5.68262,1.06641-1.2832,2.47559-1.9248,4.22461-1.9248.73828,0,1.38477.09863,1.9375.29688.55469.19727,1.03125.46387,1.43164.79688.39844.33496.74023.70801,1.02148,1.12109h.14453c-.04395-.27246-.09473-.66602-.15234-1.17969-.05664-.51465-.08496-.99121-.08496-1.43066v-5.24707h3.11133v20.51367h-2.42578l-.55371-1.99023h-.13184c-.26367.42188-.5957.80176-.99512,1.13965-.40039.33887-.875.60938-1.42383.81152-.5498.20117-1.19727.30273-1.94531.30273Zm.87109-2.51758c1.32617,0,2.2627-.38281,2.80762-1.14746s.82617-1.91113.84375-3.44043v-.40918c0-1.63477-.26367-2.88965-.79102-3.76367-.52734-.875-1.48926-1.31152-2.8877-1.31152-1.11523,0-1.9668.4502-2.55078,1.35059-.58398.90137-.87695,2.15527-.87695,3.76465,0,1.60742.29297,2.83594.87695,3.68457.58398.84766,1.44336,1.27246,2.57812,1.27246Z" style="fill: #fff;"/>
      <path d="m215.48828,258.729c1.8457,0,3.24023.4082,4.18555,1.22656.94531.81641,1.41797,2.0918,1.41797,3.82227v9.82227h-2.20215l-.59277-2.07031h-.10547c-.41406.52734-.83984.96289-1.2793,1.30566s-.94727.59961-1.52246.77148c-.57617.1709-1.27637.25684-2.10254.25684-.87109,0-1.64844-.16016-2.33398-.48145-.68555-.32031-1.22656-.81055-1.62109-1.46973-.39648-.65918-.59375-1.49414-.59375-2.50488,0-1.50293.56055-2.63184,1.68066-3.3877,1.12109-.75586,2.81543-1.17383,5.08301-1.25293l2.53125-.09277v-.76367c0-1.01074-.23633-1.73145-.70605-2.16211s-1.13184-.64648-1.9834-.64648c-.73047,0-1.4375.10547-2.12305.31641s-1.35352.4707-2.00391.77734l-1.00195-2.1875c.71191-.37793,1.52246-.68555,2.43262-.92383.90918-.23633,1.85645-.35547,2.84082-.35547Zm2.53125,7.89648l-1.88477.06641c-1.54688.05273-2.63281.31641-3.25684.79102s-.93652,1.125-.93652,1.95117c0,.7207.21582,1.24609.64648,1.5752.43066.33008.99805.49512,1.70117.49512,1.07227,0,1.96094-.30566,2.66895-.91699.70801-.61035,1.06152-1.50879,1.06152-2.69629v-1.26562Z" style="fill: #fff;"/>
      <path d="m230.86035,271.35889c.4043,0,.80371-.03711,1.2002-.1123.39453-.07422.75586-.16406,1.08008-.26953v2.3457c-.3418.15039-.78613.27734-1.33105.38281s-1.1123.1582-1.7002.1582c-.82617,0-1.56934-.13867-2.22852-.41504-.65918-.27734-1.18164-.75391-1.56836-1.43066s-.58008-1.6123-.58008-2.80859v-7.84375h-1.99121v-1.38477l2.13574-1.09375,1.01562-3.125h1.95117v3.24414h4.17871v2.35938h-4.17871v7.80469c0,.73828.18359,1.28809.55273,1.64844s.85742.54004,1.46387.54004Z" style="fill: #fff;"/>
      <path d="m237.67578,253.4165c.47461,0,.88574.12695,1.2334.38184.34668.25488.52051.69434.52051,1.31836,0,.61523-.17383,1.05273-.52051,1.31152-.34766.25977-.75879.38867-1.2334.38867-.49219,0-.90723-.12891-1.24512-.38867-.33887-.25879-.50781-.69629-.50781-1.31152,0-.62402.16895-1.06348.50781-1.31836.33789-.25488.75293-.38184,1.24512-.38184Zm1.5293,5.58984v14.59375h-3.09766v-14.59375h3.09766Z" style="fill: #fff;"/>
      <path d="m256.55469,266.27002c0,1.21289-.1582,2.29004-.47461,3.23047s-.77734,1.7334-1.38379,2.37891c-.60645.64648-1.33594,1.13867-2.18848,1.47656-.85254.33887-1.81445.50781-2.88672.50781-1.00195,0-1.9209-.16895-2.75586-.50781-.83496-.33789-1.55859-.83008-2.16797-1.47656-.61133-.64551-1.08398-1.43848-1.41797-2.37891s-.50098-2.01758-.50098-3.23047c0-1.6084.27832-2.97266.83691-4.09375.55859-1.12012,1.35547-1.97461,2.39258-2.56445,1.03711-.58789,2.27246-.88281,3.70508-.88281,1.34473,0,2.53125.29492,3.55957.88281,1.02832.58984,1.83301,1.44629,2.41309,2.57129s.86914,2.4873.86914,4.08691Zm-10.58594,0c0,1.06348.12891,1.97363.38867,2.72852.25977.75684.66211,1.33398,1.20703,1.73438.54492.39941,1.24805.59961,2.10938.59961s1.56445-.2002,2.10938-.59961c.54492-.40039.94434-.97754,1.19922-1.73438.25488-.75488.38281-1.66504.38281-2.72852s-.12793-1.9668-.38281-2.70898c-.25488-.74316-.6543-1.30957-1.19922-1.70117-.54492-.39062-1.25293-.58594-2.12305-.58594-1.2832,0-2.21875.43066-2.80859,1.29102-.58789.8623-.88281,2.09668-.88281,3.70508Z" style="fill: #fff;"/>
      <path d="m267.72168,258.729c1.64355,0,2.9248.42383,3.84277,1.27246.91797.84766,1.37793,2.20801,1.37793,4.08008v9.51855h-3.09863v-8.93848c0-1.13379-.23242-1.98438-.69824-2.55078-.46582-.56738-1.18652-.85059-2.16211-.85059-1.41504,0-2.39746.43555-2.94629,1.30469-.5498.87109-.82422,2.13184-.82422,3.78418v7.25098h-3.09766v-14.59375h2.41211l.43555,1.97656h.1709c.31641-.50879.70996-.92871,1.18066-1.25879.46875-.3291.99609-.57715,1.58203-.74512.58398-.16602,1.19238-.25,1.8252-.25Z" style="fill: #fff;"/>
    </g>
  </g>
  <g id="TextLine1">
    <text transform="translate(83.91943 240.70459)" style="fill: #fff; font-family: OpenSans-SemiBold, &apos;Open Sans&apos;; font-size: 27px; font-weight: 600;"><tspan x="0" y="0">Top Course Grade</tspan></text>
  </g>
  <g id="RibbonTop">
    <g style="filter: url(#drop-shadow-17);">
      <rect x="38.69801" y="136.28581" width="322.60398" height="58.62602" style="fill: #a0a0a0;"/>
    </g>
  </g>
  <g id="RibbonText">
    <text transform="translate(136.39014 177.85107) scale(1.07233 1)" style="fill: #fff; font-family: OpenSans-SemiBold, &apos;Open Sans&apos;; font-size: 30.97954px; font-weight: 600;"><tspan x="0" y="0">TOPPER</tspan></text>
  </g>
</svg>